<?xml version="1.0" encoding="utf-8"?>
<!-- Generator: Adobe Illustrator 17.0.2, SVG Export Plug-In . SVG Version: 6.00 Build 0)  -->
<!DOCTYPE svg PUBLIC "-//W3C//DTD SVG 1.1//EN" "http://www.w3.org/Graphics/SVG/1.1/DTD/svg11.dtd">
<svg version="1.1" xmlns="http://www.w3.org/2000/svg" xmlns:xlink="http://www.w3.org/1999/xlink" x="0px" y="0px" width="300px"
	 height="100px" viewBox="0 0 300 100" enable-background="new 0 0 300 100" xml:space="preserve">
<g id="Layer_1">
</g>
<g id="Layer_3">
</g>
<g id="TYPE">
</g>
<g id="guide">
</g>
<g id="icons">
</g>
<g id="Layer_7">
	<g>
		<path fill="#27336F" d="M65.453,43.628h1.566l5.454,12.744h-2.017l-1.277-3.15h-6.066l-1.26,3.15h-2.017L65.453,43.628z
			 M68.549,51.71l-2.377-5.85h-0.035l-2.412,5.85H68.549z"/>
		<path fill="#27336F" d="M83.455,46.382c-0.359-0.468-0.815-0.828-1.368-1.08c-0.552-0.252-1.122-0.378-1.71-0.378
			c-0.72,0-1.371,0.135-1.952,0.405c-0.583,0.27-1.08,0.639-1.494,1.107c-0.414,0.468-0.735,1.017-0.963,1.646
			c-0.229,0.63-0.343,1.305-0.343,2.025c0,0.672,0.108,1.308,0.324,1.907c0.216,0.601,0.528,1.129,0.937,1.584
			c0.407,0.457,0.905,0.816,1.493,1.08c0.588,0.265,1.254,0.396,1.998,0.396c0.732,0,1.374-0.15,1.927-0.45
			c0.552-0.3,1.02-0.72,1.403-1.26l1.458,1.098c-0.096,0.133-0.264,0.321-0.504,0.567s-0.558,0.492-0.954,0.738
			c-0.396,0.246-0.873,0.462-1.431,0.647s-1.203,0.279-1.935,0.279c-1.009,0-1.917-0.192-2.728-0.576
			c-0.81-0.384-1.5-0.888-2.07-1.512c-0.569-0.624-1.005-1.329-1.305-2.115s-0.45-1.581-0.45-2.385c0-0.984,0.162-1.894,0.486-2.728
			s0.776-1.554,1.359-2.16c0.581-0.605,1.28-1.076,2.097-1.413c0.815-0.335,1.716-0.504,2.7-0.504c0.84,0,1.665,0.162,2.475,0.486
			c0.811,0.324,1.473,0.822,1.989,1.494L83.455,46.382z"/>
		<path fill="#27336F" d="M96.661,46.382c-0.359-0.468-0.815-0.828-1.368-1.08c-0.552-0.252-1.122-0.378-1.71-0.378
			c-0.72,0-1.371,0.135-1.952,0.405c-0.583,0.27-1.08,0.639-1.494,1.107c-0.414,0.468-0.735,1.017-0.963,1.646
			c-0.229,0.63-0.343,1.305-0.343,2.025c0,0.672,0.108,1.308,0.324,1.907c0.216,0.601,0.528,1.129,0.937,1.584
			c0.407,0.457,0.905,0.816,1.493,1.08c0.588,0.265,1.254,0.396,1.998,0.396c0.732,0,1.374-0.15,1.927-0.45
			c0.552-0.3,1.02-0.72,1.403-1.26l1.458,1.098c-0.096,0.133-0.264,0.321-0.504,0.567s-0.558,0.492-0.954,0.738
			c-0.396,0.246-0.873,0.462-1.431,0.647s-1.203,0.279-1.935,0.279c-1.009,0-1.917-0.192-2.728-0.576
			c-0.81-0.384-1.5-0.888-2.07-1.512c-0.569-0.624-1.005-1.329-1.305-2.115s-0.45-1.581-0.45-2.385c0-0.984,0.162-1.894,0.486-2.728
			s0.776-1.554,1.359-2.16c0.581-0.605,1.28-1.076,2.097-1.413c0.815-0.335,1.716-0.504,2.7-0.504c0.84,0,1.665,0.162,2.475,0.486
			c0.811,0.324,1.473,0.822,1.989,1.494L96.661,46.382z"/>
		<path fill="#27336F" d="M106.844,56.696c-0.973,0-1.866-0.171-2.683-0.514c-0.815-0.342-1.515-0.812-2.097-1.412
			c-0.582-0.601-1.038-1.309-1.368-2.124c-0.33-0.816-0.495-1.698-0.495-2.646c0-0.947,0.165-1.83,0.495-2.646
			c0.33-0.816,0.786-1.524,1.368-2.124c0.582-0.601,1.281-1.071,2.097-1.413c0.816-0.343,1.71-0.514,2.683-0.514
			c0.972,0,1.865,0.171,2.682,0.514c0.816,0.342,1.515,0.812,2.097,1.413c0.582,0.6,1.038,1.308,1.368,2.124
			c0.33,0.815,0.495,1.698,0.495,2.646c0,0.948-0.165,1.83-0.495,2.646c-0.33,0.815-0.786,1.523-1.368,2.124
			c-0.582,0.6-1.28,1.07-2.097,1.412C108.709,56.525,107.816,56.696,106.844,56.696z M106.844,55.076
			c0.731,0,1.392-0.135,1.979-0.405c0.588-0.27,1.092-0.633,1.513-1.089c0.42-0.456,0.743-0.993,0.972-1.611
			c0.228-0.617,0.342-1.274,0.342-1.971c0-0.695-0.114-1.353-0.342-1.971c-0.229-0.618-0.552-1.155-0.972-1.611
			c-0.421-0.456-0.925-0.819-1.513-1.089c-0.588-0.271-1.248-0.405-1.979-0.405c-0.732,0-1.393,0.135-1.98,0.405
			c-0.588,0.27-1.092,0.633-1.512,1.089s-0.744,0.993-0.972,1.611c-0.229,0.618-0.343,1.275-0.343,1.971
			c0,0.696,0.114,1.354,0.343,1.971c0.228,0.618,0.552,1.155,0.972,1.611s0.924,0.819,1.512,1.089
			C105.452,54.941,106.112,55.076,106.844,55.076z"/>
		<path fill="#27336F" d="M116.862,43.628h2.574l4.05,9.648h0.072l4.014-9.648h2.574v12.744h-1.728V45.896h-0.036l-4.302,10.476
			h-1.152l-4.302-10.476h-0.036v10.476h-1.729V43.628z"/>
		<path fill="#27336F" d="M134.278,43.628h4.482c0.815,0,1.487,0.111,2.016,0.333c0.528,0.223,0.945,0.504,1.251,0.846
			c0.307,0.343,0.52,0.727,0.64,1.152c0.119,0.426,0.18,0.837,0.18,1.233c0,0.396-0.061,0.807-0.18,1.232
			c-0.12,0.427-0.333,0.811-0.64,1.152c-0.306,0.342-0.723,0.624-1.251,0.846c-0.528,0.223-1.2,0.333-2.016,0.333h-2.754v5.616
			h-1.729V43.628z M136.006,49.244h2.268c0.336,0,0.669-0.027,0.999-0.081s0.624-0.153,0.882-0.297
			c0.258-0.145,0.465-0.352,0.621-0.621c0.156-0.271,0.234-0.621,0.234-1.053c0-0.433-0.078-0.783-0.234-1.054
			c-0.156-0.27-0.363-0.477-0.621-0.62c-0.258-0.145-0.552-0.243-0.882-0.298c-0.33-0.054-0.663-0.081-0.999-0.081h-2.268V49.244z"
			/>
		<path fill="#27336F" d="M145.758,43.628h1.729v11.124h5.85v1.62h-7.578V43.628z"/>
		<path fill="#27336F" d="M156.07,43.628h1.729v12.744h-1.729V43.628z"/>
		<path fill="#27336F" d="M162.408,53.708c0.312,0.468,0.711,0.813,1.197,1.035s0.987,0.333,1.503,0.333
			c0.288,0,0.582-0.045,0.882-0.135c0.3-0.091,0.573-0.226,0.819-0.405s0.447-0.402,0.603-0.666c0.156-0.264,0.234-0.57,0.234-0.918
			c0-0.492-0.156-0.867-0.468-1.125c-0.312-0.258-0.699-0.474-1.161-0.648c-0.462-0.174-0.966-0.342-1.512-0.504
			c-0.547-0.162-1.051-0.387-1.513-0.675s-0.849-0.675-1.16-1.161c-0.312-0.485-0.469-1.143-0.469-1.971
			c0-0.372,0.081-0.768,0.243-1.188c0.162-0.42,0.417-0.804,0.766-1.151c0.348-0.349,0.794-0.64,1.341-0.873
			c0.546-0.234,1.202-0.352,1.971-0.352c0.696,0,1.362,0.097,1.998,0.288c0.636,0.192,1.194,0.582,1.674,1.17l-1.404,1.278
			c-0.216-0.336-0.521-0.605-0.918-0.81c-0.396-0.204-0.846-0.307-1.35-0.307c-0.48,0-0.879,0.063-1.197,0.189
			c-0.317,0.126-0.573,0.288-0.765,0.485c-0.192,0.198-0.327,0.412-0.405,0.64s-0.117,0.438-0.117,0.63
			c0,0.54,0.156,0.954,0.469,1.242c0.312,0.288,0.698,0.521,1.16,0.702c0.462,0.18,0.966,0.342,1.513,0.485
			c0.546,0.145,1.05,0.346,1.512,0.604s0.849,0.605,1.161,1.044c0.312,0.438,0.468,1.041,0.468,1.809
			c0,0.612-0.117,1.164-0.351,1.656c-0.234,0.492-0.549,0.906-0.945,1.242c-0.396,0.336-0.864,0.594-1.404,0.773
			c-0.54,0.181-1.115,0.271-1.728,0.271c-0.816,0-1.59-0.145-2.322-0.433s-1.313-0.731-1.746-1.332L162.408,53.708z"/>
		<path fill="#27336F" d="M172.956,43.628h1.729v5.292h6.605v-5.292h1.729v12.744h-1.729V50.54h-6.605v5.832h-1.729V43.628z"/>
		<path fill="#27336F" d="M187.16,43.628h2.574l4.05,9.648h0.072l4.014-9.648h2.574v12.744h-1.728V45.896h-0.036l-4.302,10.476
			h-1.152l-4.302-10.476h-0.036v10.476h-1.729V43.628z"/>
		<path fill="#27336F" d="M204.576,43.628h8.227v1.62h-6.498v3.798h6.048v1.62h-6.048v4.086h6.822v1.62h-8.551V43.628z"/>
		<path fill="#27336F" d="M216.396,43.628h2.269l7.02,10.477h0.036V43.628h1.729v12.744h-2.196l-7.092-10.476h-0.036v10.476h-1.729
			V43.628z"/>
		<path fill="#27336F" d="M234.332,45.248h-4.104v-1.62h9.936v1.62h-4.104v11.124h-1.729V45.248z"/>
	</g>
</g>
<g id="Layer_6" display="none">
</g>
</svg>
