<?xml version="1.0" encoding="utf-8"?>
<!-- Generator: Adobe Illustrator 17.0.2, SVG Export Plug-In . SVG Version: 6.00 Build 0)  -->
<!DOCTYPE svg PUBLIC "-//W3C//DTD SVG 1.1//EN" "http://www.w3.org/Graphics/SVG/1.1/DTD/svg11.dtd">
<svg version="1.1" id="Layer_1" xmlns="http://www.w3.org/2000/svg" xmlns:xlink="http://www.w3.org/1999/xlink" x="0px" y="0px"
	 width="800px" height="700px" viewBox="0 0 800 700" enable-background="new 0 0 800 700" xml:space="preserve">
<g>
	<g>
		<path fill="#F9AF94" d="M119.407,413.252c2.612,0.613,5.281,1.069,7.997,1.358c-2.617,0.225-5.268,0.336-7.945,0.336
			c-47.037,0-85.168-34.73-85.168-77.587c0-42.845,38.131-77.581,85.168-77.581c4.16,0,8.248,0.271,12.243,0.805
			c-1.879,0.079-3.739,0.231-5.577,0.462c-2.281,0.29-4.523,0.691-6.731,1.206c-32.224,7.496-56.379,38.454-56.379,75.498
			C63.015,374.798,87.17,405.757,119.407,413.252z"/>
		<path fill="#D1ECEE" d="M204.623,337.36c0,40.412-33.899,73.592-77.193,77.251h-0.026c-2.716-0.289-5.386-0.745-7.997-1.358
			c32.231-7.489,56.393-38.447,56.393-75.497c0-37.056-25.976-68.145-56.34-77.039v-0.937c1.839-0.231,9.531,0.22,12.243,0.805
			C172.937,265.982,204.623,298.305,204.623,337.36z"/>
		<path fill="#FFFFFF" d="M175.799,338.692c0,37.05-24.161,68.008-56.393,75.497c-32.237-7.495-56.392-38.454-56.392-75.503
			c0-37.044,24.221-70.474,56.445-77.97C151.703,268.205,175.799,301.636,175.799,338.692z"/>
		<path fill="#FFFFFF" d="M48.653,413.252c-0.099,0.027-0.198,0.053-0.296,0.073"/>
		<path fill="#FFFFFF" d="M134.524,260.524c-0.942,0-1.886,0.02-2.821,0.059L134.524,260.524z"/>
		<path fill="none" d="M119.459,259.779c-47.037,0-85.168,34.736-85.168,77.581c0,42.858,38.131,77.587,85.168,77.587
			c2.677,0,5.328-0.111,7.945-0.336h0.026c43.294-3.658,77.193-36.839,77.193-77.251
			C204.623,298.305,123.619,259.779,119.459,259.779z"/>
		<path fill="#F58876" d="M119.407,413.49c2.612,0.613,5.281,1.069,7.997,1.358c-2.617,0.225-5.268,0.336-7.945,0.336
			c-29.083,0-54.76-13.276-70.126-33.542c-4.127-5.443,28.452,3.047,28.452,3.047C87.855,397.998,103.288,409.742,119.407,413.49z"
			/>
		<path fill="#ABD3DC" d="M194.24,374.675c-13.249,22.085-37.94,37.651-66.81,40.091h-0.026c-2.716-0.289-5.386-0.745-7.997-1.358
			c20.939-4.865,38.472-19.635,48.187-39.545C172.834,363.123,200.86,363.64,194.24,374.675z"/>
		<path fill="#E6F3E7" d="M164.738,379.121c-10.096,17.156-26.287,29.719-45.279,34.132c-16.873-3.923-31.533-14.274-41.673-28.562
			c-0.43-0.606,55.915,7.073,90.958-13.589C168.744,371.101,165.845,377.24,164.738,379.121z"/>
	</g>
	<polygon fill="#A0A4C7" points="408.554,434.68 413.343,437.075 413.343,354.83 408.554,354.83 	"/>
	<polygon fill="#A0A4C7" points="421.473,437.763 426.263,436.565 426.263,356.118 421.473,356.118 	"/>
	<path fill="none" stroke="#231F20" stroke-width="2.2447" stroke-linejoin="round" stroke-miterlimit="10" d="M392.995,337.903"/>
	<path fill="#F48776" d="M364.48,356.801c0,0-0.2-0.064-0.2-0.215c0.074-27.35,24.356-49.433,54.463-49.414
		c30.125,0.02,54.732,22.162,55.162,49.535L364.48,356.801z"/>
	<path fill="#F9AF94" d="M428.852,254.467l-70.764,95.169c-1.36,2.272-0.477,5.301,1.975,6.772c2.454,1.469,5.542,0.819,6.905-1.45
		l71.839-96.933"/>
	<g>
		<path fill="#39556E" d="M408.012,240.15l-0.72,1.58c-0.3,0.64-0.98,1.04-1.71,1.47c-0.26,0.15-0.69,0.4-0.86,0.55l-0.26,0.85
			l-1-0.2c-0.66-0.13-1.34-0.2-2.03-0.2c-3.04,0-6.04,1.32-8.24,3.62c-2.5,2.61-3.67,6.2-3.11,9.6l0.21,1.31l-21.79-0.02v-1.13
			c0.03-9.65,8.63-17.5,19.16-17.5L408.012,240.15z"/>
	</g>
	<path fill="#F9AF94" stroke="#F8AE93" stroke-width="0.7482" stroke-miterlimit="10" d="M438.722,257.656
		c1.33-9.56-5.882-18.683-16.387-20.555c-0.955-0.171-1.895-0.271-2.839-0.31h-0.006c-0.036-0.006-0.078-0.012-0.114-0.008h-0.006
		c-9.585-0.389-18.058,5.686-19.638,14.572c-0.361,2.008-0.334,4.606,0.018,6.524L438.722,257.656z"/>
	<g>
		<path fill="#39556E" d="M412.097,249.225c-1.678,0-3.266-0.789-4.206-2.106l1.827-1.304c0.555,0.778,1.539,1.221,2.565,1.16
			c1.026-0.063,1.949-0.625,2.406-1.465l1.972,1.073c-0.823,1.513-2.448,2.521-4.24,2.632
			C412.314,249.222,412.205,249.225,412.097,249.225z"/>
	</g>
	<path fill="#231F20" stroke="#231F20" stroke-width="2.2447" stroke-linejoin="round" stroke-miterlimit="10" d="M441.195,257.369"
		/>
	<g>
		<path fill="#B98191" d="M419.229,439.853c-7.755,0-14.065-5.88-14.065-13.107h2.245c0,5.99,5.302,10.863,11.82,10.863
			s11.82-4.873,11.82-10.863h2.245C433.295,433.973,426.985,439.853,419.229,439.853z"/>
	</g>
	<g>
		<path fill="#B98191" d="M445.116,439.853c-7.756,0-14.066-5.88-14.066-13.107h2.245c0,5.99,5.303,10.863,11.821,10.863
			c6.518,0,11.82-4.873,11.82-10.863h2.245C459.181,433.973,452.871,439.853,445.116,439.853z"/>
	</g>
	<g>
		<path fill="#B98191" d="M347.37,464.355c-7.755,0-14.065-5.879-14.065-13.106h2.245c0,5.989,5.302,10.862,11.82,10.862
			c6.518,0,11.82-4.873,11.82-10.862h2.245C361.436,458.477,355.126,464.355,347.37,464.355z"/>
	</g>
	<g>
		<path fill="#B98191" d="M373.257,464.355c-7.756,0-14.066-5.879-14.066-13.106h2.245c0,5.989,5.303,10.862,11.821,10.862
			c6.518,0,11.82-4.873,11.82-10.862h2.245C387.323,458.477,381.012,464.355,373.257,464.355z"/>
	</g>
	<g opacity="0.5">
		<g>
			<path fill="#FFFFFF" d="M385.426,246.48c1.524,0,1.524-2.363,0-2.363C383.902,244.118,383.902,246.48,385.426,246.48
				L385.426,246.48z"/>
		</g>
	</g>
	<g opacity="0.5">
		<path fill="#FFFFFF" d="M375.09,255.232c-0.048,0-0.097-0.003-0.146-0.009c-0.636-0.08-1.087-0.66-1.008-1.296
			c0.412-3.292,2.293-7.548,6.242-8.71c0.617-0.18,1.261,0.171,1.441,0.786c0.181,0.615-0.171,1.26-0.786,1.441
			c-2.687,0.791-4.243,3.97-4.594,6.771C376.167,254.802,375.667,255.232,375.09,255.232z"/>
	</g>
	<g opacity="0.5">
		<path fill="#FFFFFF" d="M452.429,331.554c-0.516,0-0.986-0.346-1.123-0.868c-1.597-6.122-14.388-12.596-20.359-12.596
			c-0.641,0-1.161-0.52-1.161-1.161s0.52-1.161,1.161-1.161c3.505,0,8.553,1.682,13.172,4.388c5.131,3.006,8.57,6.631,9.434,9.944
			c0.162,0.621-0.21,1.254-0.831,1.417C452.625,331.542,452.526,331.554,452.429,331.554z"/>
	</g>
	<g opacity="0.5">
		<path fill="#FFFFFF" d="M457.067,343.867c-0.392,0-0.775-0.199-0.993-0.558c-2.65-4.361-8.028-7.625-12.546-7.625
			c-0.034,0-0.072,0.002-0.103,0c-0.636,0-1.155-0.512-1.161-1.15c-0.006-0.641,0.509-1.166,1.15-1.172c0.038,0,0.076,0,0.114,0
			c5.35,0,11.443,3.66,14.53,8.741c0.333,0.548,0.159,1.262-0.389,1.595C457.48,343.812,457.272,343.867,457.067,343.867z"/>
	</g>
	<path fill="#F4AA52" d="M666.955,278.282h-3.675c-7.33,0-13.272-6.521-13.272-14.563c0-8.047,5.941-14.568,13.272-14.568h4.121
		c-5.446,1.976-9.388,7.791-9.388,14.655C658.013,270.478,661.743,276.159,666.955,278.282z"/>
	<path fill="#DFE254" d="M706.735,278.282h-34.35c-5.213-2.123-8.944-7.803-8.944-14.477c0-6.863,3.942-12.678,9.389-14.655h34.41
		c-5.474,1.954-9.444,7.78-9.444,14.666C697.796,270.484,701.528,276.159,706.735,278.282z"/>
	<path fill="#F4AA52" d="M730.793,263.712c0,8.041-6.321,14.552-14.111,14.552c-0.175,0-0.354-0.006-0.527-0.011
		c-7.547-0.282-13.58-6.684-13.58-14.541c0-7.852,6.033-14.253,13.58-14.536c0.174-0.005,0.352-0.011,0.527-0.011
		C724.472,249.165,730.793,255.682,730.793,263.712z"/>
	<path fill="#F4AA52" d="M691.659,276.608v129.751c-0.944-1.972-3.078-3.35-5.554-3.35c-2.411,0-4.496,1.303-5.479,3.192V276.608
		c0-2.774,2.472-5.022,5.517-5.022C689.19,271.586,691.659,273.834,691.659,276.608z"/>
	<path fill="#DFE254" d="M691.659,412.14v10.508c-0.944-1.972-3.078-3.35-5.554-3.35c-2.411,0-4.496,1.302-5.479,3.192v-10.506
		c0.984-1.891,3.068-3.194,5.479-3.194C688.581,408.79,690.716,410.17,691.659,412.14z"/>
	<path fill="#F4AA52" d="M691.659,428.424v11.979c0,2.769-2.47,5.024-5.516,5.024c-3.046,0-5.517-2.255-5.517-5.024v-12.136
		c0.984-1.89,3.068-3.192,5.479-3.192C688.581,425.075,690.716,426.454,691.659,428.424z"/>
	<path fill="#FAF1B4" d="M756.839,390.463c-1.275,0.625-2.633,1.059-4.023,1.319c-0.093-13.052-9.785-23.636-21.828-23.913
		c0.348-1.168,0.826-2.286,1.434-3.351C745.774,364.519,756.628,376.095,756.839,390.463z"/>
	<path fill="#DFE254" d="M760.495,388.019c-0.175,0.158-0.354,0.31-0.539,0.462c-0.966,0.798-2.015,1.461-3.117,1.981
		c-0.211-14.368-11.065-25.944-24.417-25.944c0.613-1.07,1.362-2.08,2.248-3.002h0.004
		C748.826,361.881,760.223,373.565,760.495,388.019z"/>
	<path fill="#FAF1B4" d="M763.267,384.719c-0.608,0.978-1.334,1.896-2.177,2.737c-0.195,0.196-0.391,0.381-0.596,0.564
		c-0.272-14.454-11.669-26.139-25.821-26.502c0.077-0.082,0.153-0.164,0.234-0.246c1.032-1.03,2.172-1.888,3.4-2.562
		C751.735,358.879,762.644,370.345,763.267,384.719z"/>
	<path fill="#F4AA52" d="M752.816,391.782c-5.69,1.065-12.055-0.797-16.745-5.489c-5.159-5.158-6.902-12.342-5.083-18.424
		C743.032,368.146,752.723,378.73,752.816,391.782z"/>
	<path fill="#F4AA52" d="M763.267,384.719c-0.623-14.374-11.533-25.84-24.959-26.009c6.597-3.697,15.518-2.367,21.616,3.73
		C766.234,368.744,767.433,378.067,763.267,384.719z"/>
	<path fill="#FAF1B4" d="M672.386,278.282h-5.431c-5.212-2.123-8.942-7.803-8.942-14.477c0-6.863,3.942-12.678,9.388-14.655h5.43
		c-5.446,1.976-9.389,7.791-9.389,14.655C663.442,270.478,667.173,276.159,672.386,278.282z"/>
	<path fill="#FAF1B4" d="M703.107,263.722c0,7.858,6.033,14.259,13.58,14.542v0.016h-9.953c-5.207-2.123-8.938-7.798-8.938-14.465
		c0-6.886,3.97-12.712,9.443-14.666h9.448v0.038C709.14,249.469,703.107,255.872,703.107,263.722z"/>
	<path fill="#FAF1B4" d="M691.659,422.648v5.776c-0.944-1.97-3.078-3.349-5.554-3.349c-2.411,0-4.496,1.302-5.479,3.192v-5.778
		c0.984-1.89,3.068-3.192,5.479-3.192C688.581,419.297,690.716,420.676,691.659,422.648z"/>
	<path fill="#FAF1B4" d="M691.659,406.359v5.782c-0.944-1.97-3.078-3.35-5.554-3.35c-2.411,0-4.496,1.303-5.479,3.194V406.2
		c0.984-1.889,3.068-3.192,5.479-3.192C688.581,403.008,690.716,404.387,691.659,406.359z"/>
	<path fill="#DA994A" d="M691.659,276.62v129.751c-0.944-1.972-3.078-3.351-5.554-3.351
		C683.695,403.021,691.659,273.846,691.659,276.62z"/>
	<path fill="#DA994A" d="M691.659,428.436v11.979c0,2.768-2.47,5.024-5.516,5.024c-3.046,0-5.517-2.255-5.517-5.024
		c0,0,2.987-3.989,4.252-6.127c1.085-1.834-1.184-9.201,1.227-9.201C688.581,425.087,690.716,426.466,691.659,428.436z"/>
	<g>
		<path fill="#DA994A" d="M753.081,391.783c-5.689,1.065-12.055-0.797-16.745-5.489c-2.908-2.908,5.24,3.611,10.123,0.823
			C753.081,383.335,753.041,386.088,753.081,391.783z"/>
		<path fill="#DA994A" d="M763.276,384.719c-0.354-3.861-0.551-4.33-0.787-5.702c-0.069-0.399,0.949,0.222,1.917-0.372
			c0.58-0.356,1.33-2.562,1.288-1.731C765.551,379.682,764.748,382.368,763.276,384.719z"/>
	</g>
	<path fill="#F1E8AD" d="M756.839,390.463c-1.275,0.625-2.633,1.059-4.023,1.319c-0.008-1.086-0.082-2.154-0.218-3.201
		c-0.121-0.924-0.276-1.682-0.488-2.65c0,0,3.641-3.079,4.128-0.777c0.214,1.009,0.402,2.139,0.5,3.299
		C756.795,389.116,756.829,389.787,756.839,390.463z"/>
	<path fill="#D1D44F" d="M760.495,388.019c-0.175,0.158-0.354,0.31-0.539,0.462c-0.966,0.798-2.015,1.461-3.117,1.981
		c-0.023-1.553-0.074-3.465-0.425-4.796c-0.667-2.525,3.354-3.065,3.687-1.296C760.297,385.413,760.475,386.932,760.495,388.019z"/>
	<path fill="#F1E8AD" d="M763.267,384.719c-0.608,0.978-1.334,1.896-2.177,2.737c-0.195,0.196-0.391,0.381-0.596,0.564
		c-0.144-7.631,1.523-10.983,2.037-8.637C762.841,380.791,763.131,382.584,763.267,384.719z"/>
	<path fill="#DA994A" d="M730.796,263.714c0,8.041-6.32,14.552-14.111,14.552c-0.175,0-0.354-0.006-0.527-0.011
		c-7.547-0.282,1.964-8.569,4.048-14.539c2.359-6.76-3.695-14.549-3.52-14.549C724.476,249.167,730.796,255.683,730.796,263.714z"/>
</g>
</svg>
