<?xml version="1.0" encoding="utf-8"?>
<!-- Generator: Adobe Illustrator 17.0.2, SVG Export Plug-In . SVG Version: 6.00 Build 0)  -->
<!DOCTYPE svg PUBLIC "-//W3C//DTD SVG 1.1//EN" "http://www.w3.org/Graphics/SVG/1.1/DTD/svg11.dtd">
<svg version="1.1" id="Layer_1" xmlns="http://www.w3.org/2000/svg" xmlns:xlink="http://www.w3.org/1999/xlink" x="0px" y="0px"
	 width="800px" height="700px" viewBox="100 0 800 700" enable-background="new 100 0 800 700" xml:space="preserve">
<g>
	<path fill="#5C8B94" d="M707.727,601.173l-12.407-10.282l-14.402,16.396l0.01,0.008c-1.359,1.522-2.148,3.554-2.043,5.753
		c0.21,4.453,3.991,7.891,8.444,7.679c2.546-0.12,4.755-1.411,6.145-3.326L707.727,601.173z"/>
	<path fill="#5C8B94" d="M766.933,514.572l-13.141,14.963l0.011,0.009c-1.623,1.816-2.562,4.243-2.439,6.869
		c0.251,5.315,4.764,9.42,10.083,9.167c3.039-0.143,5.676-1.684,7.335-3.971l11.677-13.294L766.933,514.572z"/>
	<path fill="#5C8B94" d="M748.557,514.37l-13.141,14.963l0.011,0.009c-1.623,1.816-2.562,4.243-2.439,6.869
		c0.251,5.315,4.765,9.42,10.083,9.167c3.039-0.143,5.676-1.684,7.335-3.971l11.677-13.294L748.557,514.37z"/>
	<path fill="#5C8B94" d="M834.69,512.105l-12.959,15.12l0.011,0.01c-1.6,1.835-2.511,4.273-2.355,6.896
		c0.316,5.311,4.877,9.361,10.193,9.045c3.037-0.181,5.656-1.753,7.285-4.06l11.517-13.434L834.69,512.105z"/>
	<path fill="#5C8B94" d="M816.312,512.325l-12.96,15.121l0.012,0.009c-1.601,1.836-2.511,4.273-2.355,6.897
		c0.315,5.311,4.877,9.361,10.192,9.045c3.037-0.181,5.656-1.753,7.286-4.059l11.516-13.434L816.312,512.325z"/>
	<path fill="#FFFFFF" d="M708.546,597.154c0,4.424-3.587,8.013-8.011,8.013c-4.426,0-8.015-3.588-8.015-8.013
		c0-4.425,3.589-8.012,8.015-8.012C704.958,589.142,708.546,592.73,708.546,597.154"/>
	<path fill="#FFFFFF" d="M779.132,513.57l-0.033-0.025c-3.195-2.922-8.149-2.714-11.077,0.482
		c-2.921,3.195-2.705,8.148,0.489,11.069c0.133,0.125,0.265,0.233,0.406,0.334c0.636,0.518,1.561,0.903,2.28,1.414
		c0.768,0.544,1.306,1.707,1.234,3.422c-0.113,2.678-2.439,4.854-5.444,4.854c0.572,0.092,3.665,0.134,4.264,0.134
		c6.746,0,11.153-8.555,11.153-14.314C782.402,518.058,781.158,515.452,779.132,513.57"/>
	<path fill="#FFFFFF" d="M760.756,513.367l-0.033-0.025c-3.195-2.923-8.149-2.714-11.077,0.482
		c-2.921,3.194-2.705,8.148,0.489,11.068c0.133,0.124,0.265,0.233,0.406,0.334c0.636,0.518,1.561,0.903,2.28,1.414
		c0.768,0.544,1.306,1.707,1.234,3.422c-0.113,2.678-2.439,4.854-5.444,4.854c0.572,0.092,3.665,0.134,4.263,0.134
		c6.746,0,11.153-8.555,11.153-14.314C764.025,517.855,762.781,515.25,760.756,513.367"/>
	<polygon fill="#5C8B94" points="667.029,261.586 655.972,236.478 667.144,224.447 	"/>
	<polygon fill="#5C8B94" points="250.601,296.555 246.506,301.062 245.164,301.062 245.97,277.032 234.195,277.032 234.195,241.144 
		250.381,224.987 	"/>
	<polygon fill="#5C8B94" points="343.047,256.813 342.612,244.574 359.823,224.757 359.422,226.424 	"/>
	<polygon fill="#5C8B94" points="550.184,262.412 543.992,236.997 556.51,224.247 	"/>
	<polygon fill="#5C8B94" points="171.46,310.372 156.053,326.173 137.726,326.173 137.726,244.042 154.034,225.13 154.389,225.91 
		154.403,310.008 	"/>
	<path fill="#5C8B94" d="M263.923,305.676c-5.711,6.65-15.267,16.194-16.947,17.188c-2.206,1.297-4.734,1.984-7.3,1.984h-9.889
		c-8.224,0-14.891-6.666-14.891-14.891v-17.616l13.959-15.634l0.352,18.987c0,8.224,6.667,14.127,14.891,14.127h9.171
		C257.025,309.822,261.304,307.974,263.923,305.676"/>
	<polygon fill="#5C8B94" points="362.248,309.511 360.476,309.535 346.091,276.252 341.829,282.181 342.592,309.171 325.93,309.514 
		325.636,224.721 309.245,243.732 309.245,325.795 331.231,325.795 341.704,311.63 340.354,309.542 346.641,325.693 
		365.907,325.665 377.395,309.841 	"/>
	<polygon fill="#5C8B94" points="469.149,309.939 455.536,325.398 421.671,325.398 421.671,242.639 437.202,224.814 
		437.776,309.677 455.201,309.677 	"/>
	<polygon fill="#5C8B94" points="655.483,273.132 632.407,227.332 632.007,224.505 617.271,241.106 617.271,325.213 
		646.411,325.213 651.688,319.219 652.864,325.259 653.284,325.259 670.898,325.259 684.715,309.566 	"/>
	<polygon fill="#5C8B94" points="508.07,242.105 508.07,325.899 527.161,325.899 542.708,325.967 562.125,325.967 575.971,309.603 
		558.175,274.899 541.418,274.922 523.991,309.808 523.723,224.246 	"/>
	<g>
		<polygon fill="#5C8B94" points="856.422,112.615 847.676,116.928 847.676,85.938 856.13,79.358 		"/>
		<polygon fill="#5C8B94" points="862.517,128.384 845.84,128.658 849.299,164.893 849.125,163.366 830.972,163.366 830.695,79.427 
			815.951,95.953 815.951,180.883 838.096,180.883 840.862,177.746 840.862,180.883 859.684,180.98 873.43,164.616 		"/>
		<polygon fill="#FFFFFF" points="873.43,79.471 873.43,164.616 855.867,164.616 855.867,129.871 848.995,129.871 848.995,164.616 
			830.668,164.616 830.668,79.471 848.995,79.471 848.995,112.307 855.867,112.307 855.898,79.471 		"/>
	</g>
	<rect x="154.099" y="225.22" fill="#FFFFFF" width="17.426" height="85.274"/>
	<path fill="#FFFFFF" d="M250.43,295.884c0,0.272-0.164,0.503-0.398,0.602c-0.078,0.033-0.163,0.05-0.255,0.05l-0.066,0.008h-2.149
		l-0.482,0.001c-0.361,0-0.65-0.291-0.65-0.653l-0.002-0.309v-18.828h-17.526v18.663c0,8.224,6.666,14.891,14.891,14.891h9.17
		c3.757,0,7.187-1.391,9.805-3.688c1.282-1.256,1.933-1.998,2.726-3.162c1.497-2.321,2.359-5.078,2.359-8.04v-70.315h-17.425v0.512
		v70.18L250.43,295.884z"/>
	<polygon fill="#FFFFFF" points="377.237,310.029 361.149,310.021 360.171,310.021 345.777,277.131 343.051,281.903 343.051,310 
		325.625,310 325.625,224.857 343.051,224.857 343.13,255.574 348.954,244.823 359.804,224.885 376.383,224.885 356.308,261.776 	
		"/>
	<polygon fill="#FFFFFF" points="684.677,224.565 684.677,309.709 667.747,309.709 651.069,269.809 651.069,309.709 
		632.101,309.709 632.101,224.565 651.069,224.565 666.984,261.028 666.984,224.565 	"/>
	<polygon fill="#FFFFFF" points="469.184,296.988 469.184,310.092 468.963,310.092 454.675,310.099 437.25,310.099 437.25,224.948 
		437.25,224.825 454.675,224.825 454.675,296.988 	"/>
	<polygon fill="#FFFFFF" points="556.424,224.633 549.825,259.813 543.564,224.434 523.687,224.434 523.687,309.708 
		538.822,309.708 538.822,275.552 545.305,309.831 554.155,309.831 560.162,274.799 560.83,309.708 575.965,309.708 
		575.965,224.434 	"/>
	<polygon fill="#5C8B94" points="189.402,514.513 178.692,542.011 174.881,531.124 	"/>
	<polygon fill="#5C8B94" points="714.436,413.06 703.806,398.216 711.128,379.333 720.316,368.593 	"/>
	<polygon fill="#5C8B94" points="736.688,409.646 727.814,389.969 731.732,377.459 739.395,368.656 739.724,369.928 	"/>
	<polygon fill="#5C8B94" points="835.33,368.949 824.764,396.566 820.954,385.651 	"/>
	<path fill="#5C8B94" d="M515.042,572.585l23.106-44.336l-26.816-4.799l-12.04,18.756v14.302h6.757
		c-1.598,2.336-2.877,4.2-3.454,5.04c-1.202,1.759-2.001,4.402-2.349,7.279l-0.189,2.841c-0.002,0.144-0.935,23.308-0.935,23.308
		h16.495l10.278-15.679l-11.429-0.261L515.042,572.585z"/>
	<path fill="#5C8B94" d="M465.712,599.746l-11.484-9.517L440.9,605.403l0.009,0.008c-1.259,1.409-1.987,3.29-1.891,5.324
		c0.195,4.122,3.693,7.303,7.815,7.107c2.357-0.11,4.402-1.307,5.688-3.078L465.712,599.746z"/>
	<path fill="#5C8B94" d="M630.51,542.545c-6.298-6.291-16.496-6.291-22.788,0l-6.693,6.693l-1.386-24.393
		c-6.291-6.291-21.804,11.409-28.095,17.7c-6.292,6.291-6.292,16.49,0,22.788l6.693,6.693l22.788,22.78l22.787-22.78l6.693-6.693
		C636.801,559.034,636.801,548.836,630.51,542.545"/>
	<polygon fill="#5C8B94" points="396.537,568.977 400.714,564.133 408.236,555.412 396.4,555.321 395.452,539.865 384.833,518.016 
		383.654,517.136 369.111,536.049 364.431,518.016 363.489,517.136 348.709,536.049 348.56,545.843 346.015,539.289 329.55,558.079 
		329.542,571.626 338.497,571.626 328.16,583.34 328.16,597.318 337.488,597.318 332.987,618.945 352.077,618.945 353.745,617.235 
		353.389,618.945 372.479,618.945 387.887,603.143 377.309,600.888 376.942,597.26 391.77,597.318 406.049,580.373 396.537,580.123 
			"/>
	<polygon fill="#5C8B94" points="466.867,574.811 456.588,590.489 440.29,590.517 440.286,536.213 452.326,517.457 455.502,570.419 
			"/>
	<path fill="#5C8B94" d="M525.241,599.124l-11.484-9.517l-13.328,15.174l0.009,0.008c-1.259,1.409-1.987,3.289-1.891,5.324
		c0.195,4.122,3.693,7.303,7.814,7.107c2.357-0.11,4.402-1.307,5.688-3.078L525.241,599.124z"/>
	<polygon fill="#5C8B94" points="746.794,454.716 730.889,470.234 712.838,470.234 694.848,470.165 687.455,470.165 
		676.016,387.483 692.375,368.656 724.956,418.941 728.921,454.144 746.794,454.266 	"/>
	<polygon fill="#5C8B94" points="166.726,560.253 148.389,517.343 133.125,534.962 150.69,578.759 150.674,617.912 174.622,617.912 
		187.666,602.469 	"/>
	<polygon fill="#5C8B94" points="255.803,589.58 274.925,530.645 258.818,528.359 250.526,517.084 235.201,534.862 235.444,549.3 
		251.474,549.342 239.69,600.367 239.745,618.102 279.992,618.171 296.098,602.414 	"/>
	<polygon fill="#5C8B94" points="833.895,455.116 824.597,428.697 814.731,455.069 796.664,455.069 812.434,414.074 
		794.301,368.949 779.02,386.675 796.748,432.4 779.02,471.16 802.542,471.094 814.25,457.28 820.073,471.16 840.146,471.16 
		854.087,455.212 	"/>
	<path fill="#FFFFFF" d="M644.697,528.266c-6.299-6.292-16.497-6.292-22.788,0l-6.693,6.693l-6.693-6.693
		c-6.29-6.292-16.496-6.292-22.787,0c-6.291,6.291-6.291,16.49,0,22.787l6.693,6.693l22.789,22.781l22.786-22.781l6.694-6.693
		C650.988,544.757,650.988,534.557,644.697,528.266"/>
	<path fill="#FFFFFF" d="M376.697,564.399h-4.205l1.429-9.611h4.188L376.697,564.399z M407.548,554.787v-15.532h-10.896
		l3.271-21.983h-16.295l-3.234,21.983h-4.161l3.27-21.983h-16.295l-3.234,21.983h-14.279v15.532h11.995l-1.414,9.611h-12.871v15.532
		l10.589-0.013l-3.33,22.637h16.151l3.37-22.657l4.232-0.006l-3.334,22.662h16.151l3.374-22.682l14.648-0.018v-15.455h-12.345
		l1.429-9.611L407.548,554.787L407.548,554.787z"/>
	<rect x="452.398" y="517.595" fill="#FFFFFF" width="14.501" height="57.408"/>
	<path fill="#FFFFFF" d="M466.803,595.459c0,3.982-3.229,7.212-7.21,7.212c-3.984,0-7.214-3.229-7.214-7.212
		c0-3.982,3.23-7.211,7.214-7.211C463.574,588.248,466.803,591.477,466.803,595.459"/>
	<path fill="#FFFFFF" d="M510.722,579.415v-7.59c0-4.071,0.901-8.141,2.55-10.554c2.346-3.41,16.234-23.702,16.363-24.066
		c0.091-0.256,0.123-1.112,0.123-1.112v-3.468l-0.003-1.918c0-0.361-0.289-0.652-0.651-0.652h-0.825h-1.013h-2.281
		c-0.362,0-0.653,0.291-0.653,0.652l-0.003,1.79v7.975h-15.897v-8.4c0-8.224,6.665-14.891,14.891-14.891h4.49
		c3.39,0,8.032,1.129,10.538,3.032c1.039,0.794,1.978,1.719,2.764,2.757c0.794,1.023,1.458,2.152,1.97,3.367
		c0.741,1.765,1.145,3.704,1.145,5.736c0,4.33,0.107,8.69-1.565,12.768c-0.733,1.786-12.883,20.771-14.226,22.611
		c-0.206,0.282-0.412,0.581-0.612,0.87c-1.636,2.41-1.935,4.932-1.969,7.566c-0.015,1.189-0.01,3.529-0.01,3.529L510.722,579.415
		L510.722,579.415z"/>
	<path fill="#FFFFFF" d="M526.331,594.837c0,3.982-3.229,7.212-7.21,7.212c-3.984,0-7.214-3.229-7.214-7.212
		c0-3.982,3.23-7.211,7.214-7.211C523.102,587.627,526.331,590.855,526.331,594.837"/>
	<polygon fill="#FFFFFF" points="756.902,368.768 746.175,454.041 728.618,454.034 724.653,424.122 720.331,454.041 
		703.569,454.041 692.436,368.974 692.405,368.768 709.831,368.768 714.283,409.369 720.361,368.699 730.159,368.699 
		736.384,409.369 739.468,369.005 739.475,368.882 739.475,368.768 	"/>
	<polygon fill="#FFFFFF" points="207.99,517.408 189.319,517.408 189.098,517.972 179.102,543.92 175.291,534.017 168.892,517.4 
		148.825,517.408 148.587,517.408 169.576,570.145 169.576,602.553 187.766,602.553 187.766,569.838 	"/>
	<polygon fill="#FFFFFF" points="296.168,587.59 296.168,602.552 255.528,602.521 255.498,584.209 272.922,532.065 250.459,532.065 
		250.459,517.256 291.923,517.256 291.869,533.58 274.086,587.59 	"/>
	<polygon fill="#FFFFFF" points="854.07,455.102 833.773,455.102 833.59,454.612 824.212,430.292 814.942,454.361 814.66,455.102 
		813.285,455.102 796.058,455.079 796.005,455.079 811.796,414.049 811.827,413.98 808.589,405.574 794.515,369.042 814.82,369.034 
		821.219,385.651 825.03,395.554 835.026,369.607 835.247,369.042 853.918,369.042 837.415,411.866 853.886,454.62 	"/>
	<polygon fill="#5C8B94" points="289.49,118.23 285.996,122.197 283.374,121.233 	"/>
	<polygon fill="#5C8B94" points="169.354,164.274 168.095,151.067 159.649,150.466 157.901,164.011 157.09,164.27 158.435,164.27 
		153.28,170.99 154.777,180.047 154.799,180.192 172.068,180.297 186.258,164.669 	"/>
	<polygon fill="#5C8B94" points="391.159,115.644 376.762,131.988 374.042,131.988 374.042,152.027 370.14,152.312 370.14,93.323 
		374.042,93.323 374.042,115.248 391.159,115.197 	"/>
	<polygon fill="#5C8B94" points="577.029,92.865 562.997,108.826 562.997,92.483 	"/>
	<polygon fill="#5C8B94" points="577.008,127.852 563.31,143.475 562.743,127.852 	"/>
	<polygon fill="#5C8B94" points="671.723,92.78 657.883,108.485 657.883,92.78 	"/>
	<polygon fill="#5C8B94" points="671.659,127.968 658.009,143.485 657.723,127.634 	"/>
	<polygon fill="#5C8B94" points="141.061,94.435 126.57,180.193 145.171,180.193 153.28,170.99 159.199,164.27 141.718,164.27 
		152.906,97.103 155.228,82.976 155.498,79.339 	"/>
	<path fill="#5C8B94" d="M285.63,162.808c-5.201,5.384-13.89,14.227-16.861,16.029c-2.277,1.383-4.949,2.085-7.598,2.085
		l-24.377,0.034V98.86l17.468-19.226l0.396,85.634h22.787C280.469,165.268,283.286,164.366,285.63,162.808"/>
	<path fill="#5C8B94" d="M386.131,161.402c-4.933,5.597-14.349,16.159-16.211,17.258c-2.207,1.299-4.735,1.984-7.293,1.984h-8.782
		c-8.224,0-14.891-6.665-14.891-14.891v-54.98c0-2.687,0.733-5.33,2.107-7.636c1.421-2.375,3.575-4.322,5.392-6.384
		c2.694-3.046,5.392-6.094,8.079-9.155c-1.222,2.161-1.918,4.643-1.918,7.307v55.744c0,8.224,6.667,14.127,14.891,14.127h9.179
		C380.274,164.777,383.558,163.509,386.131,161.402"/>
	<path fill="#5C8B94" d="M484.782,160.546c-3.506,3.987-7.011,8.728-10.516,12.715c-1.786,2.032-3.344,4.039-5.689,5.468
		c-2.275,1.381-4.948,2.083-7.606,2.083h-25.459V99.487l17.346-20.222l0.355,84.748h20.496
		C477.337,164.013,482.192,162.715,484.782,160.546"/>
	<polygon fill="#5C8B94" points="577.019,164.69 563.093,180.559 529.65,180.559 529.65,98.435 545.967,79.519 546.372,164.325 	"/>
	<polygon fill="#5C8B94" points="625.147,98.558 625.147,180.691 644.088,180.691 658.076,164.901 641.825,164.525 641.825,80.016 
		641.452,79.649 	"/>
	<polygon fill="#FFFFFF" points="155.788,79.395 155.475,79.395 155.407,79.815 154.925,82.701 152.604,96.828 141.417,164.76 
		158.362,164.76 160.486,151.61 167.028,151.556 169.206,164.76 186.111,164.76 186.111,164.745 174.91,96.783 172.595,82.701 
		172.039,79.356 	"/>
	<path fill="#FFFFFF" d="M292.03,110.911c0,4.993-3.523,9.167-8.217,10.168l0.014,0.254c4.694,1.008,8.203,5.178,8.203,10.167v18.6
		c0,5.2-2.665,9.782-6.705,12.432c-2.345,1.558-5.162,2.459-8.186,2.459h-22.787V79.846h20.504c8.217,0,17.174,6.667,17.174,14.891
		V110.911z"/>
	<path fill="#FFFFFF" d="M370.486,151.924c-0.362,0-0.651-0.291-0.651-0.653v-1.305V95.624v-2.022c0-0.361,0.289-0.651,0.651-0.651
		l0.911,0.005h0.765h0.922c0.362,0,0.653,0.291,0.653,0.652l0.002,1.38v19.983h17.533V94.629c0-8.225-6.667-14.891-14.891-14.891
		h-9.18c-5.567,0-10.415,3.054-12.973,7.575v0.008c-1.223,2.162-1.918,4.644-1.918,7.308v55.744c0,8.224,6.667,14.891,14.891,14.891
		h9.18c3.589,0,6.873-1.268,9.446-3.375l0.014-0.015c3.314-2.726,5.43-6.865,5.43-11.501v-18.663h-17.533v18.957l0.002,0.61
		c0,0.272-0.164,0.504-0.398,0.602c-0.078,0.033-0.164,0.051-0.255,0.051h-0.927h-0.765L370.486,151.924z"/>
	<path fill="#FFFFFF" d="M489.823,94.246v55.363c0,4.589-2.078,8.698-5.345,11.424c-2.59,2.168-5.918,3.466-9.545,3.466h-22.023
		V79.355h22.023C483.156,79.355,489.823,86.023,489.823,94.246"/>
	<polygon fill="#FFFFFF" points="577.116,79.606 577.116,92.961 563.456,92.97 563.456,114.749 577.047,114.749 577.047,127.989 
		563.456,127.989 563.478,143.285 563.493,151.57 577.086,151.57 577.086,164.811 546.067,164.811 546.03,80.171 546.03,79.606 	"/>
	<polygon fill="#FFFFFF" points="640.756,165.011 658.182,165.011 658.182,128.121 671.781,128.121 671.781,114.88 658.052,114.826 
		658.182,92.979 671.781,92.967 671.781,79.775 640.756,79.739 	"/>
	<g>
		<polygon fill="#5C8B94" points="768.624,114.496 762.332,123.248 749.793,123.302 749.793,123.379 754.879,152.342 
			744.066,151.883 745.166,91.954 749.915,91.771 		"/>
		<path fill="#5C8B94" d="M730.015,157.154c-0.992-1.994-1.549-4.239-1.549-6.613V94.797c0-2.688,0.717-5.215,1.97-7.4
			c-2.749,3.138-5.522,6.262-8.277,9.393c-1.819,2.062-3.979,4.009-5.392,6.384c-1.382,2.305-2.115,4.948-2.115,7.636v54.98
			c0,8.225,6.666,14.891,14.891,14.891c0,0,0.014,0.068,0.587,0c1.964-0.236,3.681-0.978,5.392-1.985
			c0.144-0.083,0.289-0.175,0.435-0.268v2.147h17.382l13.506-15.329l-0.188-0.41C766.657,164.836,732.444,162.064,730.015,157.154"
			/>
		<path fill="#FFFFFF" d="M751,151.137c0,0.271-0.164,0.503-0.398,0.602c-0.078,0.033-0.163,0.05-0.255,0.05l-4.11,0.002
			c-0.362,0-0.651-0.29-0.651-0.653v-1.261V93.893v-0.738c0-0.36,0.289-0.651,0.651-0.651h4.118c0.362,0,0.653,0.291,0.653,0.651
			l0.007,21.347h17.426V94.794c0-7.04-4.833-13.142-11.385-14.745c-1.099-0.275-2.253-0.42-3.436-0.42h-10.568
			c-5.528,0-10.348,3.018-12.92,7.484v0.008c-1.253,2.183-1.97,4.712-1.97,7.399v55.745c0,2.375,0.557,4.619,1.549,6.613
			c2.429,4.91,7.492,8.277,13.341,8.277h0.107c2.137,0,5.696-0.45,7.53-1.26c0.115-0.046,0.223-0.09,0.328-0.144v1.572h17.426
			v-42.296l-19.717,0.092v8.69h2.291v18.26L751,151.137z"/>
	</g>
	<polygon fill="#241F21" points="186.093,163.993 186.109,163.978 186.422,163.618 	"/>
	<polygon fill="#5C8B94" points="166.48,139.561 161.049,139.561 163.34,109.092 164.189,109.092 	"/>
	<path fill="#5C8B94" d="M275.219,95.026v18.944c0,0.275-0.222,0.504-0.549,0.603c-0.107,0.03-0.222,0.046-0.349,0.046h-2.273
		l0.006-20.243h2.267C274.818,94.376,275.219,94.667,275.219,95.026"/>
	<path fill="#5C8B94" d="M275.219,130.142v18.944c0,0.275-0.222,0.504-0.549,0.603c-0.107,0.03-0.222,0.046-0.349,0.046h-2.273
		l0.006-20.242h2.267C274.818,129.494,275.219,129.784,275.219,130.142"/>
	<path fill="#5C8B94" d="M473.274,96.033v50.981c0,0.275-0.159,0.504-0.397,0.603c-0.075,0.03-0.159,0.046-0.252,0.046h-3.169
		v-0.649c0-0.015,0.009-31.348,0.016-31.363l-0.011-20.266h3.165C472.984,95.384,473.274,95.674,473.274,96.033"/>
	<polygon fill="#5C8B94" points="526.127,436.656 521.361,436.105 521.361,374.038 525.802,369.537 	"/>
	<path fill="#5C8B94" d="M862.369,268.856c-1.869,0.775-3.916,1.2-6.063,1.2h-2.708v12.312l14.962-16.914l0.123-1.313
		C867.02,266.197,864.857,267.836,862.369,268.856"/>
	<polygon fill="#5C8B94" points="362.949,403.361 355.559,394.689 351.657,389.001 349.937,381.49 355.588,380.207 372.662,392.12 	
		"/>
	<polygon fill="#5C8B94" points="460.755,382.839 444.203,402.717 443.44,381.216 	"/>
	<polygon fill="#5C8B94" points="624.649,369.096 614.302,428.98 608.099,390.105 	"/>
	<path fill="#5C8B94" d="M778.239,305.401c-0.405,0.467-0.817,0.932-1.222,1.397c-3.132,3.559-6.27,7.11-9.415,10.653
		c-1.886,2.123-3.673,4.375-6.163,5.842c-2.208,1.297-4.735,1.984-7.301,1.984h-9.865c-8.224,0-14.891-6.666-14.891-14.891v-54.981
		c0-2.689,0.725-5.338,2.107-7.636c1.421-2.376,3.574-4.322,5.392-6.384c2.703-3.055,5.399-6.1,8.087-9.171
		c-1.229,2.161-1.924,4.667-1.924,7.323v55.744c0,8.225,6.665,14.127,14.891,14.127h7.849
		C769.71,309.409,775.582,307.89,778.239,305.401"/>
	<polygon fill="#5C8B94" points="854.171,309.711 840.355,325.393 820.08,325.393 820.08,243.831 836.788,224.471 837.195,309.305 
		851.523,309.359 	"/>
	<path fill="#5C8B94" d="M185.212,459.256l-8.499-8.871c-2.36,1.573-30.986-2.248-30.986-10.472v-55.744
		c0-2.659,0.695-5.162,1.923-7.324c-2.687,3.071-5.383,6.117-8.087,9.172c-1.817,2.062-3.971,4.009-5.391,6.383
		c-1.383,2.299-2.108,4.949-2.108,7.636v54.981c0,8.225,6.667,14.891,14.891,14.891h9.102c2.566,0,5.095-0.686,7.301-1.984
		c2.252-1.329,4.505-3.977,6.208-5.917l6.474,6.493L185.212,459.256z"/>
	<path fill="#5C8B94" d="M249.005,470.391h15.754l13.798-15.853l-14.409-34.691c0.229-0.267-22.927-50.706-22.927-50.706
		l-16.315,18.822v82.429l21.18-0.183l2.904-3.207"/>
	<path fill="#5C8B94" d="M372.312,447.876c-5.59,7.743-19.763,22.022-25.429,21.854h-10.881c-8.224,0-14.891-6.665-14.891-14.891
		v-18.12l11.584-13.149l0.069-0.016l-0.061-0.083c-3.917-5.423-9.56-11.241-10.431-13.372c-1.672-4.077-1.565-8.43-1.565-12.767
		c0-2.81,0.779-5.438,2.138-7.682c0.175-0.299,0.367-0.589,0.565-0.871c0.099-0.144,0.199-0.283,0.298-0.42l0.008-0.008
		c1.344-1.81,3.047-3.414,4.52-5.086c1.505-1.704,3.566-3.406,5.513-5.11c1.283-1.115,2.512-2.245,3.498-3.367
		c-1.954,2.512-3.116,5.673-3.116,9.102c0,4.33-0.107,8.69,1.565,12.768c1.527,3.719,17.686,24.657,17.686,24.657l18.861,26.55
		L372.312,447.876z"/>
	<polygon fill="#5C8B94" points="432.077,451.409 429.273,382.998 414.418,369.341 398.08,387.856 398.08,401.834 412.588,401.834 
		412.588,470.122 432.431,470.19 446.306,454.677 	"/>
	<path fill="#5C8B94" d="M538.901,450.516c-0.412,0.465-0.816,0.93-1.222,1.397c-3.131,3.559-6.276,7.11-9.415,10.652
		c-1.885,2.124-3.673,4.376-6.163,5.842c-2.207,1.297-4.742,1.984-7.301,1.984h-9.11c-8.224,0-14.891-6.666-14.891-14.891v-71.027
		l13.314-15.115l0.354,1.19v69.849c0,8.224,6.667,14.127,14.891,14.127h7.85C531.135,454.526,536.244,453.006,538.901,450.516"/>
	<polygon fill="#5C8B94" points="624.41,455.288 611.081,470.463 586.242,470.463 571.615,387.744 586.89,369.069 587.106,369.263 
		602.784,450.707 	"/>
	<path fill="#FFFFFF" d="M194.346,449.929l-9.262,9.262l-7.163-7.147c-2.36,1.573-5.193,2.482-8.232,2.482h-9.377
		c-8.225,0-14.891-6.667-14.891-14.891v-55.744c0-2.659,0.695-5.162,1.923-7.324c2.559-4.52,7.407-7.566,12.967-7.566h9.377
		c8.224,0,14.891,6.665,14.891,14.891c0,0,0,56.088-0.015,56.255L194.346,449.929z"/>
	<path fill="#FFFFFF" d="M782.66,239.261v55.744c0,4.292-1.819,8.164-4.726,10.881c-2.659,2.49-6.239,4.009-10.165,4.009h-10.14
		c-8.225,0-14.891-6.665-14.891-14.891v-55.744c0-2.656,0.695-5.162,1.923-7.323c2.559-4.52,7.406-7.567,12.967-7.567h10.14
		C775.994,224.37,782.66,231.036,782.66,239.261"/>
	<path fill="#FFFFFF" d="M858.321,224.572h-21.488v85.274h17.427v-39.311h4.061c2.009,0,3.926-0.397,5.674-1.123
		c2.329-0.955,4.353-2.49,5.91-4.414c2.069-2.558,3.306-5.811,3.306-9.355v-16.181C873.213,231.239,866.547,224.572,858.321,224.572
		"/>
	<path fill="#FFFFFF" d="M263.127,420.905c0-0.361-0.3-0.652-0.671-0.652h-0.491h-2.762l0.004,34.286h-17.941v-85.281h22.121
		c8.465,0,15.324,6.675,15.324,14.898v17.578c0,5.017-3.663,9.209-8.531,10.184l-0.014,0.216c4.882,0.971,8.545,5.163,8.545,10.188
		v32.216h-15.575v-33.109L263.127,420.905z"/>
	<path fill="#FFFFFF" d="M350.476,440.885c-0.362,0-0.651-0.291-0.651-0.653v-1.531v-17.114h-15.997v17.771
		c0,8.224,6.667,14.891,14.891,14.891h11.363c2.986,0,5.766-0.879,8.109-2.39c1.443-0.955,2.719-2.139,3.749-3.506
		c0.268-0.343,0.519-0.702,0.749-1.068c1.444-2.291,2.283-5.017,2.283-7.927v-13.699c0-4.071-0.901-8.141-2.55-10.554
		c-2.346-3.41-16.258-20.491-20.09-25.186c-0.621-0.761-0.725-0.807-0.854-1.171c-0.092-0.256-0.124-1.112-0.124-1.112v-3.468
		l0.003-1.918c0-0.361,0.289-0.652,0.651-0.652h0.825h1.013h2.281c0.362,0,0.653,0.291,0.653,0.652l0.003,1.79v7.975h15.897v-8.4
		c0-8.224-6.665-14.891-14.891-14.891h-9.072c-3.39,0-8.032,1.129-10.538,3.032c-1.039,0.794-1.977,1.718-2.764,2.757
		c-0.794,1.023-1.458,2.152-1.97,3.367c-0.74,1.765-1.145,3.704-1.145,5.736c0,4.33-0.107,8.69,1.565,12.768
		c0.733,1.786,2.147,3.382,3.268,4.933c3.597,4.986,7.537,9.712,11.263,14.593c1.375,1.795,2.932,3.535,4.276,5.376
		c0.206,0.282,0.412,0.581,0.612,0.87c2.374,3.498,1.931,7.232,1.954,11.203c0.012,1.646,0.015,3.694,0.016,5.536l0.003,1.341
		c0,0.272-0.164,0.503-0.398,0.602c-0.078,0.033-0.164,0.05-0.255,0.05h-1.042h-0.766L350.476,440.885L350.476,440.885z"/>
	<polygon fill="#FFFFFF" points="460.725,369.504 460.725,382.744 446.369,382.744 446.369,454.784 428.943,454.784 
		428.943,382.744 414.434,382.744 414.434,369.504 	"/>
	<path fill="#FFFFFF" d="M525.245,436.302c0.091,0,0.652-0.381,0.652-0.653v-0.722v-65.441h17.426v70.635
		c0,4.29-1.818,8.162-4.728,10.882c-2.657,2.49-6.239,4.009-10.163,4.009h-9.378c-8.224,0-14.891-6.666-14.891-14.891v-70.635
		h17.915v65.123v1.041c0,0.362,0.289,0.653,0.651,0.653L525.245,436.302L525.245,436.302z"/>
	<polygon fill="#FFFFFF" points="624.665,369.14 613.997,428.702 605.979,369.14 587.028,369.14 600.748,455.201 624.291,455.201 
		640.197,369.14 	"/>
	<path fill="#5C8B94" d="M165.933,385.795h-1.832c-0.589,0-1.067,0.29-1.067,0.65v41.214c0,2.232-0.002,4.133-0.002,5.545
		c0,0.002,0.002,0.005,0.002,0.006v2.688c0,0.275,0.263,0.504,0.652,0.603c0.126,0.03,0.264,0.046,0.415,0.046h0.593h0.59h0.65
		c0.151,0,0.288-0.016,0.415-0.046c0.388-0.099,0.653-0.327,0.653-0.603v-49.453C167,386.084,166.523,385.795,165.933,385.795"/>
	<path fill="#5C8B94" d="M764.402,240.399h-3.404c-0.359,0-0.649,0.29-0.649,0.65v41.978c0,2.232-0.001,4.133-0.001,5.545
		c0,0.002,0.001,0.005,0.001,0.006v3.451c0,0.275,0.16,0.504,0.397,0.603c0.077,0.03,0.16,0.046,0.252,0.046h0.36h2.649h0.395
		c0.091,0,0.174-0.016,0.252-0.046c0.237-0.099,0.397-0.327,0.397-0.603v-50.98C765.052,240.689,764.761,240.399,764.402,240.399"/>
	<path fill="#5C8B94" d="M857.417,237.622v18.9c0,0.275-0.16,0.504-0.397,0.603c-0.076,0.03-0.159,0.046-0.252,0.046h-3.169
		l0.005-20.198h3.165C857.127,236.974,857.417,237.264,857.417,237.622"/>
	<path fill="#5C8B94" d="M262.321,382.636v18.899c0,0.275-0.236,0.504-0.585,0.603c-0.112,0.03-0.235,0.046-0.37,0.046h-2.416v-0.65
		c0-0.015,0.012-0.03,0.024-0.046l-0.017-19.503h2.41C261.894,381.986,262.321,382.277,262.321,382.636"/>
	<path fill="#FFFFFF" d="M836.109,527.958l0.033,0.025c3.23,2.883,8.181,2.615,11.071-0.616c2.881-3.229,2.607-8.179-0.623-11.06
		c-0.135-0.124-0.268-0.232-0.411-0.329c-0.642-0.51-1.572-0.885-2.297-1.387c-0.774-0.535-1.326-1.692-1.275-3.407
		c0.081-2.679,2.38-4.883,5.386-4.919c-0.575-0.085-3.667-0.089-4.266-0.082c-6.745,0.082-11.047,8.689-10.977,14.448
		C832.786,523.509,834.062,526.101,836.109,527.958"/>
	<path fill="#FFFFFF" d="M817.729,528.179l0.034,0.025c3.23,2.883,8.181,2.615,11.071-0.616c2.881-3.229,2.607-8.179-0.623-11.061
		c-0.134-0.123-0.268-0.231-0.41-0.328c-0.643-0.51-1.573-0.885-2.297-1.387c-0.774-0.535-1.325-1.692-1.274-3.407
		c0.08-2.679,2.38-4.883,5.385-4.919c-0.574-0.086-3.666-0.09-4.265-0.082c-6.746,0.082-11.048,8.689-10.978,14.447
		C814.406,523.732,815.683,526.322,817.729,528.179"/>
</g>
</svg>
